<mxfile host="app.diagrams.net" modified="2024-08-09T09:38:22.118Z" agent="Mozilla/5.0 (Windows NT 10.0; Win64; x64) AppleWebKit/537.36 (KHTML, like Gecko) Chrome/127.0.0.0 Safari/537.36" etag="C1FZqGWYIKXpV6mUjevj" version="24.7.1" type="github">
  <diagram name="Page-1" id="74e2e168-ea6b-b213-b513-2b3c1d86103e">
    <mxGraphModel dx="1434" dy="746" grid="1" gridSize="10" guides="1" tooltips="1" connect="1" arrows="1" fold="1" page="1" pageScale="1" pageWidth="1100" pageHeight="850" background="none" math="0" shadow="0">
      <root>
        <mxCell id="0" />
        <mxCell id="1" parent="0" />
        <mxCell id="v39-QPmwr4xWQmdN0_RU-10" value="" style="edgeStyle=orthogonalEdgeStyle;rounded=0;orthogonalLoop=1;jettySize=auto;html=1;" edge="1" parent="1" source="v39-QPmwr4xWQmdN0_RU-2" target="v39-QPmwr4xWQmdN0_RU-9">
          <mxGeometry relative="1" as="geometry" />
        </mxCell>
        <mxCell id="v39-QPmwr4xWQmdN0_RU-2" value="开始" style="strokeWidth=2;html=1;shape=mxgraph.flowchart.start_1;whiteSpace=wrap;" vertex="1" parent="1">
          <mxGeometry x="190" y="70" width="100" height="60" as="geometry" />
        </mxCell>
        <mxCell id="v39-QPmwr4xWQmdN0_RU-12" value="" style="edgeStyle=orthogonalEdgeStyle;rounded=0;orthogonalLoop=1;jettySize=auto;html=1;" edge="1" parent="1" source="v39-QPmwr4xWQmdN0_RU-9" target="v39-QPmwr4xWQmdN0_RU-11">
          <mxGeometry relative="1" as="geometry" />
        </mxCell>
        <mxCell id="v39-QPmwr4xWQmdN0_RU-9" value="制度名称搜索本地内部制度表" style="rounded=1;whiteSpace=wrap;html=1;strokeWidth=2;" vertex="1" parent="1">
          <mxGeometry x="180" y="180" width="120" height="60" as="geometry" />
        </mxCell>
        <mxCell id="v39-QPmwr4xWQmdN0_RU-14" value="" style="edgeStyle=orthogonalEdgeStyle;rounded=0;orthogonalLoop=1;jettySize=auto;html=1;" edge="1" parent="1" source="v39-QPmwr4xWQmdN0_RU-11" target="v39-QPmwr4xWQmdN0_RU-13">
          <mxGeometry relative="1" as="geometry" />
        </mxCell>
        <mxCell id="v39-QPmwr4xWQmdN0_RU-11" value="存在" style="rhombus;whiteSpace=wrap;html=1;rounded=1;strokeWidth=2;" vertex="1" parent="1">
          <mxGeometry x="200" y="290" width="80" height="80" as="geometry" />
        </mxCell>
        <mxCell id="v39-QPmwr4xWQmdN0_RU-13" value="" style="shape=waypoint;sketch=0;size=6;pointerEvents=1;points=[];fillColor=default;resizable=0;rotatable=0;perimeter=centerPerimeter;snapToPoint=1;rounded=1;strokeWidth=2;" vertex="1" parent="1">
          <mxGeometry x="390" y="320" width="20" height="20" as="geometry" />
        </mxCell>
      </root>
    </mxGraphModel>
  </diagram>
</mxfile>
